# Blender v2.76 (sub 0) OBJ File: 'pill.blend'
# www.blender.org
mtllib pill.mtl
o Sphere_Sphere.002
v -0.433884 0.900969 1.554258
v -0.781832 0.623490 1.554258
v -0.974928 0.222521 1.554258
v -0.974928 -0.222521 1.554258
v -0.781832 -0.623490 1.554258
v -0.433884 -0.900969 1.554258
v -0.000000 1.000000 1.554259
v 0.433883 0.900969 1.554258
v 0.781831 0.623490 1.554258
v 0.974927 0.222521 1.554258
v 0.974927 -0.222521 1.554258
v 0.781831 -0.623490 1.554258
v 0.433883 -0.900969 1.554258
v 0.375754 0.900969 1.771200
v 0.677086 0.623490 1.945174
v 0.844312 0.222521 2.041722
v 0.844312 -0.222521 2.041722
v 0.677086 -0.623490 1.945174
v 0.375754 -0.900969 1.771200
v 0.216942 0.900969 1.930013
v 0.390915 0.623490 2.231344
v 0.487464 0.222521 2.398571
v 0.487464 -0.222521 2.398571
v 0.390915 -0.623490 2.231344
v 0.216942 -0.900969 1.930013
v -0.000000 0.900969 1.988142
v -0.000000 0.623490 2.336090
v -0.000000 0.222521 2.529186
v -0.000000 -0.222521 2.529186
v -0.000000 -0.623490 2.336090
v -0.000000 -0.900969 1.988142
v -0.216942 0.900969 1.930013
v -0.390916 0.623490 2.231344
v -0.487464 0.222521 2.398571
v -0.487464 -0.222521 2.398571
v -0.390916 -0.623490 2.231344
v -0.216942 -0.900969 1.930013
v -0.375754 0.900969 1.771200
v -0.677086 0.623490 1.945174
v -0.844312 0.222521 2.041722
v -0.844312 -0.222521 2.041722
v -0.677086 -0.623490 1.945174
v -0.375754 -0.900969 1.771200
v -0.000000 -1.000000 1.554258
v -0.433884 0.900969 -1.554258
v -0.781832 0.623490 -1.554258
v -0.974928 0.222521 -1.554258
v -0.974928 -0.222521 -1.554258
v -0.781832 -0.623490 -1.554258
v -0.433884 -0.900969 -1.554258
v -0.000000 1.000000 -1.554259
v 0.433883 0.900969 -1.554258
v 0.781831 0.623490 -1.554258
v 0.974927 0.222521 -1.554258
v 0.974927 -0.222521 -1.554258
v 0.781831 -0.623490 -1.554258
v 0.433883 -0.900969 -1.554258
v 0.375754 0.900969 -1.771200
v 0.677086 0.623490 -1.945174
v 0.844312 0.222521 -2.041722
v 0.844312 -0.222521 -2.041722
v 0.677086 -0.623490 -1.945174
v 0.375754 -0.900969 -1.771200
v 0.216942 0.900969 -1.930013
v 0.390915 0.623490 -2.231344
v 0.487464 0.222521 -2.398571
v 0.487464 -0.222521 -2.398571
v 0.390915 -0.623490 -2.231344
v 0.216942 -0.900969 -1.930013
v -0.000000 0.900969 -1.988142
v -0.000000 0.623490 -2.336090
v -0.000000 0.222521 -2.529186
v -0.000000 -0.222521 -2.529186
v -0.000000 -0.623490 -2.336090
v -0.000000 -0.900969 -1.988142
v -0.216942 0.900969 -1.930013
v -0.390916 0.623490 -2.231344
v -0.487464 0.222521 -2.398571
v -0.487464 -0.222521 -2.398571
v -0.390916 -0.623490 -2.231344
v -0.216942 -0.900969 -1.930013
v -0.375754 0.900969 -1.771200
v -0.677086 0.623490 -1.945174
v -0.844312 0.222521 -2.041722
v -0.844312 -0.222521 -2.041722
v -0.677086 -0.623490 -1.945174
v -0.375754 -0.900969 -1.771200
v -0.000000 -1.000000 -1.554258
vn 0.875800 -0.421800 0.234700
vn 0.875800 0.421800 0.234700
vn 0.615000 -0.771100 0.164800
vn 0.965900 0.000000 0.258800
vn 0.615000 0.771100 0.164800
vn 0.641100 0.421800 0.641100
vn 0.450200 -0.771100 0.450200
vn 0.707100 0.000000 0.707100
vn 0.450200 0.771100 0.450200
vn 0.641100 -0.421800 0.641100
vn 0.164800 -0.771100 0.615000
vn 0.258800 0.000000 0.965900
vn 0.164800 0.771100 0.615000
vn 0.234700 -0.421800 0.875800
vn 0.234700 0.421800 0.875800
vn -0.164800 -0.771100 0.615000
vn -0.258800 0.000000 0.965900
vn -0.164800 0.771100 0.615000
vn -0.234700 -0.421800 0.875800
vn -0.234700 0.421800 0.875800
vn -0.450200 0.771100 0.450200
vn -0.641100 -0.421800 0.641100
vn -0.641100 0.421800 0.641100
vn -0.450200 -0.771100 0.450200
vn -0.707100 0.000000 0.707100
vn 0.222100 -0.973200 0.059500
vn 0.222100 0.973200 0.059500
vn 0.162600 0.973200 0.162600
vn 0.162600 -0.973200 0.162600
vn 0.059500 -0.973200 0.222100
vn 0.059500 0.973200 0.222100
vn -0.059500 -0.973200 0.222100
vn -0.059500 0.973200 0.222100
vn -0.162600 -0.973200 0.162600
vn -0.162600 0.973200 0.162600
vn -0.222100 -0.973200 0.059500
vn -0.875800 -0.421800 0.234700
vn -0.875800 0.421800 0.234700
vn -0.222100 0.973200 0.059500
vn -0.615000 -0.771100 0.164800
vn -0.965900 0.000000 0.258800
vn -0.615000 0.771100 0.164800
vn 0.875800 -0.421800 -0.234700
vn 0.875800 0.421800 -0.234700
vn 0.615000 -0.771100 -0.164800
vn 0.965900 0.000000 -0.258800
vn 0.615000 0.771100 -0.164800
vn 0.641100 0.421800 -0.641100
vn 0.450200 -0.771100 -0.450200
vn 0.707100 0.000000 -0.707100
vn 0.450200 0.771100 -0.450200
vn 0.641100 -0.421800 -0.641100
vn 0.164800 -0.771100 -0.615000
vn 0.258800 0.000000 -0.965900
vn 0.164800 0.771100 -0.615000
vn 0.234700 -0.421800 -0.875800
vn 0.234700 0.421800 -0.875800
vn -0.164800 -0.771100 -0.615000
vn -0.258800 0.000000 -0.965900
vn -0.164800 0.771100 -0.615000
vn -0.234700 -0.421800 -0.875800
vn -0.234700 0.421800 -0.875800
vn -0.450200 0.771100 -0.450200
vn -0.641100 -0.421800 -0.641100
vn -0.641100 0.421800 -0.641100
vn -0.450200 -0.771100 -0.450200
vn -0.707100 0.000000 -0.707100
vn 0.222100 -0.973200 -0.059500
vn 0.222100 0.973200 -0.059500
vn 0.162600 0.973200 -0.162600
vn 0.162600 -0.973200 -0.162600
vn 0.059500 -0.973200 -0.222100
vn 0.059500 0.973200 -0.222100
vn -0.059500 -0.973200 -0.222100
vn -0.059500 0.973200 -0.222100
vn -0.162600 -0.973200 -0.162600
vn -0.162600 0.973200 -0.162600
vn -0.222100 -0.973200 -0.059500
vn -0.875800 -0.421800 -0.234700
vn -0.875800 0.421800 -0.234700
vn -0.222100 0.973200 -0.059500
vn -0.615000 -0.771100 -0.164800
vn -0.965900 0.000000 -0.258800
vn -0.615000 0.771100 -0.164800
vn -0.901000 0.433900 0.000000
vn -1.000000 0.000000 0.000000
vn -0.901000 -0.433900 0.000000
vn -0.623500 -0.781800 0.000000
vn -0.222500 -0.974900 0.000000
vn 0.222500 -0.974900 0.000000
vn 0.623500 -0.781800 0.000000
vn 0.901000 -0.433900 0.000000
vn 1.000000 0.000000 0.000000
vn 0.901000 0.433900 0.000000
vn 0.623500 0.781800 0.000000
vn 0.222500 0.974900 0.000000
vn -0.222500 0.974900 0.000000
vn -0.623500 0.781800 0.000000
usemtl None
s off
f 11//1 17//1 18//1
f 9//2 15//2 16//2
f 13//3 12//3 18//3
f 10//4 16//4 17//4
f 8//5 14//5 15//5
f 15//6 21//6 22//6
f 19//7 18//7 24//7
f 16//8 22//8 23//8
f 14//9 20//9 21//9
f 17//10 23//10 24//10
f 25//11 24//11 30//11
f 22//12 28//12 29//12
f 21//13 20//13 26//13
f 23//14 29//14 30//14
f 21//15 27//15 28//15
f 31//16 30//16 36//16
f 28//17 34//17 35//17
f 27//18 26//18 32//18
f 29//19 35//19 36//19
f 27//20 33//20 34//20
f 32//21 38//21 39//21
f 35//22 41//22 42//22
f 34//23 33//23 39//23
f 36//24 42//24 43//24
f 34//25 40//25 41//25
f 44//26 13//26 19//26
f 8//27 7//27 14//27
f 14//28 7//28 20//28
f 44//29 19//29 25//29
f 44//30 25//30 31//30
f 20//31 7//31 26//31
f 44//32 31//32 37//32
f 26//33 7//33 32//33
f 44//34 37//34 43//34
f 32//35 7//35 38//35
f 44//36 43//36 6//36
f 41//37 4//37 5//37
f 39//38 2//38 3//38
f 38//39 7//39 1//39
f 42//40 5//40 6//40
f 40//41 3//41 4//41
f 39//42 38//42 1//42
f 12//1 11//1 18//1
f 10//2 9//2 16//2
f 19//3 13//3 18//3
f 11//4 10//4 17//4
f 9//5 8//5 15//5
f 16//6 15//6 22//6
f 25//7 19//7 24//7
f 17//8 16//8 23//8
f 15//9 14//9 21//9
f 18//10 17//10 24//10
f 31//11 25//11 30//11
f 23//12 22//12 29//12
f 27//13 21//13 26//13
f 24//14 23//14 30//14
f 22//15 21//15 28//15
f 37//16 31//16 36//16
f 29//17 28//17 35//17
f 33//18 27//18 32//18
f 30//19 29//19 36//19
f 28//20 27//20 34//20
f 33//21 32//21 39//21
f 36//22 35//22 42//22
f 40//23 34//23 39//23
f 37//24 36//24 43//24
f 35//25 34//25 41//25
f 42//37 41//37 5//37
f 40//38 39//38 3//38
f 43//40 42//40 6//40
f 41//41 40//41 4//41
f 2//42 39//42 1//42
f 55//43 62//43 61//43
f 53//44 60//44 59//44
f 57//45 62//45 56//45
f 54//46 61//46 60//46
f 52//47 59//47 58//47
f 59//48 66//48 65//48
f 63//49 68//49 62//49
f 60//50 67//50 66//50
f 58//51 65//51 64//51
f 61//52 68//52 67//52
f 69//53 74//53 68//53
f 66//54 73//54 72//54
f 65//55 70//55 64//55
f 67//56 74//56 73//56
f 65//57 72//57 71//57
f 75//58 80//58 74//58
f 72//59 79//59 78//59
f 71//60 76//60 70//60
f 73//61 80//61 79//61
f 71//62 78//62 77//62
f 76//63 83//63 82//63
f 79//64 86//64 85//64
f 78//65 83//65 77//65
f 80//66 87//66 86//66
f 78//67 85//67 84//67
f 88//68 63//68 57//68
f 52//69 58//69 51//69
f 58//70 64//70 51//70
f 88//71 69//71 63//71
f 88//72 75//72 69//72
f 64//73 70//73 51//73
f 88//74 81//74 75//74
f 70//75 76//75 51//75
f 88//76 87//76 81//76
f 76//77 82//77 51//77
f 88//78 50//78 87//78
f 85//79 49//79 48//79
f 83//80 47//80 46//80
f 82//81 45//81 51//81
f 86//82 50//82 49//82
f 84//83 48//83 47//83
f 83//84 45//84 82//84
f 56//43 62//43 55//43
f 54//44 60//44 53//44
f 63//45 62//45 57//45
f 55//46 61//46 54//46
f 53//47 59//47 52//47
f 60//48 66//48 59//48
f 69//49 68//49 63//49
f 61//50 67//50 60//50
f 59//51 65//51 58//51
f 62//52 68//52 61//52
f 75//53 74//53 69//53
f 67//54 73//54 66//54
f 71//55 70//55 65//55
f 68//56 74//56 67//56
f 66//57 72//57 65//57
f 81//58 80//58 75//58
f 73//59 79//59 72//59
f 77//60 76//60 71//60
f 74//61 80//61 73//61
f 72//62 78//62 71//62
f 77//63 83//63 76//63
f 80//64 86//64 79//64
f 84//65 83//65 78//65
f 81//66 87//66 80//66
f 79//67 85//67 78//67
f 86//79 49//79 85//79
f 84//80 47//80 83//80
f 87//82 50//82 86//82
f 85//83 48//83 84//83
f 46//84 45//84 83//84
f 46//85 47//85 3//85
f 47//86 48//86 4//86
f 48//87 49//87 5//87
f 49//88 50//88 6//88
f 50//89 88//89 44//89
f 88//90 57//90 13//90
f 57//91 56//91 12//91
f 56//92 55//92 11//92
f 55//93 54//93 10//93
f 54//94 53//94 9//94
f 53//95 52//95 8//95
f 52//96 51//96 7//96
f 51//97 45//97 1//97
f 45//98 46//98 2//98
f 2//85 46//85 3//85
f 3//86 47//86 4//86
f 4//87 48//87 5//87
f 5//88 49//88 6//88
f 6//89 50//89 44//89
f 44//90 88//90 13//90
f 13//91 57//91 12//91
f 12//92 56//92 11//92
f 11//93 55//93 10//93
f 10//94 54//94 9//94
f 9//95 53//95 8//95
f 8//96 52//96 7//96
f 7//97 51//97 1//97
f 1//98 45//98 2//98
